<svg xmlns="http://www.w3.org/2000/svg" viewBox="0 0 317.37 137.82"><defs><style>.cls-1{fill:#fff;}</style></defs><g id="Capa_2" data-name="Capa 2"><g id="Capa_1-2" data-name="Capa 1"><path class="cls-1" d="M116.48,137.82H21.34A21.36,21.36,0,0,1,0,116.48V21.34A21.36,21.36,0,0,1,21.34,0h95.14a21.36,21.36,0,0,1,21.34,21.34h-10A11.36,11.36,0,0,0,116.48,10H21.34A11.36,11.36,0,0,0,10,21.34v95.14a11.36,11.36,0,0,0,11.34,11.34h95.14a11.36,11.36,0,0,0,11.34-11.34h10A21.36,21.36,0,0,1,116.48,137.82Z"/><path class="cls-1" d="M74.28,78q-.11,4.89,5.77,7t16.82,2.1c4.44,0,8.17-.09,11.21-.29a40.15,40.15,0,0,0,7.33-1,9.55,9.55,0,0,0,4-1.86A3.73,3.73,0,0,0,120.65,81a3.42,3.42,0,0,0-2-3.08,18.56,18.56,0,0,0-5.33-1.81,56.17,56.17,0,0,0-7.58-1q-4.26-.3-8.66-.49-6-.3-11.54-.73a46.8,46.8,0,0,1-9.93-1.77,18,18,0,0,1-7-3.71A8.36,8.36,0,0,1,66,61.94a9,9,0,0,1,2.74-6.89,17.49,17.49,0,0,1,7.19-3.92A47,47,0,0,1,86,49.42c3.75-.26,7.54-.39,11.39-.39,3.66,0,7.32.13,11,.39a41.09,41.09,0,0,1,10,1.86,18.17,18.17,0,0,1,7.28,4.3,10.65,10.65,0,0,1,2.94,7.63h-9.68q.09-3.42-5.43-5.23t-15.9-1.81c-4.18,0-7.68.13-10.52.39a44.15,44.15,0,0,0-6.89,1.08,10,10,0,0,0-3.77,1.61,2.63,2.63,0,0,0-1.13,2,3.34,3.34,0,0,0,1.47,2.83A12,12,0,0,0,81,65.85a44.94,44.94,0,0,0,6.89,1q4.11.34,9.4.54,7.82.3,14,.83a52.62,52.62,0,0,1,10.57,1.86,15.06,15.06,0,0,1,6.65,3.72,9,9,0,0,1,2.3,6.5A10,10,0,0,1,128,87.77a18,18,0,0,1-7.33,4.16,46.62,46.62,0,0,1-10.18,1.85c-3.75.3-7.55.44-11.4.44q-6.06,0-12.27-.44a44.72,44.72,0,0,1-11.16-2.1,19.89,19.89,0,0,1-8.07-4.89q-3.12-3.23-3-8.8Z"/><path class="cls-1" d="M201.35,78.67a16.31,16.31,0,0,1-4.84,8.27,24.19,24.19,0,0,1-8,4.69,39,39,0,0,1-9.54,2.1q-5,.49-9.54.49a99.15,99.15,0,0,1-12.13-.73,32.67,32.67,0,0,1-10.66-3.08,18.93,18.93,0,0,1-7.58-6.85q-2.9-4.5-2.89-12.13t2.93-12a19.29,19.29,0,0,1,7.68-6.8,33.07,33.07,0,0,1,10.72-3.08,97.35,97.35,0,0,1,11.93-.74,76.83,76.83,0,0,1,11.45.88A32.87,32.87,0,0,1,191.32,53a21.27,21.27,0,0,1,7.59,6.6q2.93,4.17,2.93,10.81v4.21H146.37a10.87,10.87,0,0,0,2.79,6.55,14,14,0,0,0,5.63,3.48A26.44,26.44,0,0,0,162,86c2.57.13,5.07.19,7.48.19,1.76,0,3.68,0,5.77-.14a31.84,31.84,0,0,0,6.07-.88,18.9,18.9,0,0,0,5.38-2.25,9.67,9.67,0,0,0,3.72-4.26ZM191.86,68.5A11.23,11.23,0,0,0,189,62.14a14.11,14.11,0,0,0-5.48-3.52,27.42,27.42,0,0,0-7-1.52q-3.72-.35-7.14-.34c-2.61,0-5.18.09-7.73.29a25.72,25.72,0,0,0-7,1.47A13.27,13.27,0,0,0,149.41,62a11.71,11.71,0,0,0-2.74,6.46Z"/><path class="cls-1" d="M212.31,46.58q-3.33,0-3.33-3.42V39.93q0-3.42,3.33-3.42h3.52q3.33,0,3.33,3.42v3.23q0,3.42-3.33,3.42Zm-3.23,47h10V49.71h-10Z"/><path class="cls-1" d="M228,49.62h8l1.37,6.55a23.06,23.06,0,0,1,5.43-3.77,28.61,28.61,0,0,1,6-2.15,42.24,42.24,0,0,1,6.46-1Q258.58,49,262,49A68,68,0,0,1,273.5,50,28.82,28.82,0,0,1,283,53.24a18,18,0,0,1,6.55,6.35A19.3,19.3,0,0,1,292,69.77V93.54h-9.88V72.31a17.77,17.77,0,0,0-1.42-7.58,11,11,0,0,0-4.21-4.7,18.31,18.31,0,0,0-6.75-2.34,57.49,57.49,0,0,0-9.14-.64,53.54,53.54,0,0,0-9.2.73,19.25,19.25,0,0,0-7.19,2.65,13.18,13.18,0,0,0-4.7,5.28,19.12,19.12,0,0,0-1.71,8.66V93.54H228Z"/><path class="cls-1" d="M297.55,45.62a6.61,6.61,0,0,1,.8-3.44,5.44,5.44,0,0,1,2.16-2,9.8,9.8,0,0,1,3.19-1,27.15,27.15,0,0,1,3.81-.26,24.12,24.12,0,0,1,3.79.28,9.15,9.15,0,0,1,3.14,1.05,5.75,5.75,0,0,1,2.14,2.07,6.42,6.42,0,0,1,.79,3.35,6.63,6.63,0,0,1-.79,3.45,5.53,5.53,0,0,1-2.14,2.07,9.12,9.12,0,0,1-3.14,1,26.86,26.86,0,0,1-3.79.26,28.85,28.85,0,0,1-3.81-.24,9.54,9.54,0,0,1-3.19-1,5.33,5.33,0,0,1-2.16-2A6.76,6.76,0,0,1,297.55,45.62Zm.87,0a5.66,5.66,0,0,0,.78,3.16,5.1,5.1,0,0,0,2.05,1.8,8.78,8.78,0,0,0,2.9.83,28.13,28.13,0,0,0,3.36.19,27.55,27.55,0,0,0,3.29-.19,9.12,9.12,0,0,0,2.88-.81,5,5,0,0,0,2.05-1.78,5.57,5.57,0,0,0,.78-3.14,5.47,5.47,0,0,0-.83-3.18,5.4,5.4,0,0,0-2.1-1.81,9,9,0,0,0-2.89-.82,26.23,26.23,0,0,0-3.18-.2,30.78,30.78,0,0,0-3.35.18,9,9,0,0,0-2.91.79,5,5,0,0,0-2.05,1.8A5.71,5.71,0,0,0,298.42,45.62ZM301.68,41h8.52a4.63,4.63,0,0,1,2.9.8,2.73,2.73,0,0,1,.95,2.4,2.67,2.67,0,0,1-.68,1.85,3.42,3.42,0,0,1-1.86.93,5.38,5.38,0,0,1,1.32,1.37,10.12,10.12,0,0,1,1,1.86h-2.28A4.45,4.45,0,0,0,309.87,48a5.1,5.1,0,0,0-2.84-.68h-3.35V50.2h-2Zm8.55,4.69a2.5,2.5,0,0,0,1.48-.36,1.57,1.57,0,0,0-.09-2.36,2.79,2.79,0,0,0-1.57-.39h-6.37v3.11Z"/><path class="cls-1" d="M180.08,117.23v-1.9H194.4v9.1h-2l-.24-3.71a7,7,0,0,1-2,1.94,10.83,10.83,0,0,1-2.67,1.21,17,17,0,0,1-3.23.63c-1.18.11-2.42.17-3.74.17a30.45,30.45,0,0,1-4.76-.38,12.75,12.75,0,0,1-4.27-1.44,8.5,8.5,0,0,1-3.1-2.92,10.36,10.36,0,0,1,0-9.64,8.73,8.73,0,0,1,3.1-2.91,13,13,0,0,1,4.27-1.43,30.45,30.45,0,0,1,4.76-.38,36.7,36.7,0,0,1,5,.33,14.4,14.4,0,0,1,4.24,1.21,8.38,8.38,0,0,1,3.06,2.46,8,8,0,0,1,1.49,4h-2.77a6,6,0,0,0-1.26-2.91,6.56,6.56,0,0,0-2.43-1.73,12.1,12.1,0,0,0-3.34-.85,33.55,33.55,0,0,0-4-.22,26.73,26.73,0,0,0-3.79.27,10.78,10.78,0,0,0-3.39,1.06,6.25,6.25,0,0,0-2.42,2.2,7.9,7.9,0,0,0,0,7.4,6.27,6.27,0,0,0,2.4,2.2,10.44,10.44,0,0,0,3.39,1,25.71,25.71,0,0,0,3.81.28,32.43,32.43,0,0,0,3.79-.21,11.77,11.77,0,0,0,3.18-.77,6.84,6.84,0,0,0,2.37-1.58,5.4,5.4,0,0,0,1.35-2.56Z"/><path class="cls-1" d="M197.86,109h2.39l.55,2.43a10.62,10.62,0,0,1,3.58-2,13.82,13.82,0,0,1,4.21-.65,18.78,18.78,0,0,1,3.72.36,12.93,12.93,0,0,1,3.2,1.06v2.59a11.44,11.44,0,0,0-3.34-1.3,18,18,0,0,0-3.79-.4,12.52,12.52,0,0,0-2.23.21,10.79,10.79,0,0,0-2.18.63,8.09,8.09,0,0,0-1.85,1,4.42,4.42,0,0,0-1.28,1.46v10h-3Z"/><path class="cls-1" d="M216.83,116.75a7.83,7.83,0,0,1,1-4.21,6.55,6.55,0,0,1,2.61-2.4,11,11,0,0,1,3.74-1.09,36.69,36.69,0,0,1,8.72,0,11,11,0,0,1,3.74,1.09,6.37,6.37,0,0,1,2.59,2.4,7.93,7.93,0,0,1,1,4.21,7.85,7.85,0,0,1-1,4.17,6.37,6.37,0,0,1-2.59,2.4,11.2,11.2,0,0,1-3.74,1.09,36.69,36.69,0,0,1-8.72,0,11.2,11.2,0,0,1-3.74-1.09,6.55,6.55,0,0,1-2.61-2.4A7.75,7.75,0,0,1,216.83,116.75Zm2.83,0a5.36,5.36,0,0,0,.78,3.11,4.78,4.78,0,0,0,2,1.66,8.46,8.46,0,0,0,2.83.68c1.06.08,2.14.12,3.22.12s2.16,0,3.22-.12a8.52,8.52,0,0,0,2.84-.68,4.64,4.64,0,0,0,2-1.66,5.44,5.44,0,0,0,.77-3.11,5.54,5.54,0,0,0-.77-3.14,4.5,4.5,0,0,0-2-1.66,9,9,0,0,0-2.84-.65c-1.06-.09-2.13-.13-3.22-.13s-2.16,0-3.22.13a9,9,0,0,0-2.83.65,4.64,4.64,0,0,0-2,1.66A5.46,5.46,0,0,0,219.66,116.75Z"/><path class="cls-1" d="M245.62,109v7.41a6.44,6.44,0,0,0,.7,3.29,4.63,4.63,0,0,0,1.89,1.76,7.46,7.46,0,0,0,2.7.73c1,.09,2.06.14,3.15.14a25.05,25.05,0,0,0,3.39-.21,6.76,6.76,0,0,0,2.61-.87,4.28,4.28,0,0,0,1.68-1.86,7.47,7.47,0,0,0,.59-3.22V109h2.94v15.44H263l-.49-2.56a6.87,6.87,0,0,1-1.8,1.43,8.63,8.63,0,0,1-2.06.83,12.68,12.68,0,0,1-2.3.4c-.8.07-1.65.11-2.52.11a36.65,36.65,0,0,1-3.86-.21,11,11,0,0,1-3.6-1,6.7,6.7,0,0,1-2.65-2.25,6.91,6.91,0,0,1-1-4V109Z"/><path class="cls-1" d="M268.73,109h2.35l.56,2.46a5.11,5.11,0,0,1,1.68-1.35,10.24,10.24,0,0,1,2.24-.81,16.24,16.24,0,0,1,2.6-.4c.91-.07,1.82-.1,2.72-.1a39.37,39.37,0,0,1,4.25.22,10.67,10.67,0,0,1,3.69,1,6.33,6.33,0,0,1,2.58,2.4,8.32,8.32,0,0,1,1,4.3,8.22,8.22,0,0,1-1,4.3,6.26,6.26,0,0,1-2.58,2.37,10.66,10.66,0,0,1-3.69,1,39.35,39.35,0,0,1-4.25.23c-.86,0-1.73,0-2.62-.09a17.55,17.55,0,0,1-2.56-.34,9.41,9.41,0,0,1-2.26-.78,5.82,5.82,0,0,1-1.77-1.35v9h-2.94Zm2.94,7.76a5.07,5.07,0,0,0,.9,3.21,5.15,5.15,0,0,0,2.27,1.66,10.06,10.06,0,0,0,3,.63c1.08.07,2.07.1,3,.1s2,0,3.09-.1a9.06,9.06,0,0,0,2.88-.64,4.86,4.86,0,0,0,2.11-1.66,6.75,6.75,0,0,0,0-6.41,5,5,0,0,0-2.11-1.67,8.8,8.8,0,0,0-2.88-.66c-1-.07-2.08-.11-3.09-.11s-1.92,0-3,.11a9.75,9.75,0,0,0-3,.64,5.35,5.35,0,0,0-2.27,1.68A5.08,5.08,0,0,0,271.67,116.75Z"/></g></g></svg>